<svg width="90" height="57" viewBox="0 0 90 57" fill="none" xmlns="http://www.w3.org/2000/svg">
<path fill-rule="evenodd" clip-rule="evenodd" d="M39.4872 4.61254e-08V29.3815H38.4236V0L39.4872 4.61254e-08Z" fill="#F8AA16"/>
<path fill-rule="evenodd" clip-rule="evenodd" d="M56.9872 12.0197V29.3927H55.9236V12.0197H56.9872Z" fill="#F8AA16"/>
<path fill-rule="evenodd" clip-rule="evenodd" d="M78.9744 28.9363V46.3093H77.9107V28.9363H78.9744Z" fill="#F8AA16"/>
<path d="M39.095 0.808046H49.276V6.46437H39.095V0.808046Z" fill="#F8AA16"/>
<path d="M56.9872 12.8277H67.1682V18.4841H56.9872V12.8277Z" fill="#F8AA16"/>
<path d="M78.9744 29.7443H89.1553V35.4007H78.9744V29.7443Z" fill="#F8AA16"/>
<path d="M0 56.9823L39.0397 25.4684L50.6623 33.4205L56.6225 26.941L74.5033 45.4959L78.3775 42.2562L90 56.9823H45.894L58.4106 47.263L52.4503 43.7288V38.7219L50.6623 37.2493L30.9934 56.9823H25.3311L36.3576 43.7288H30.9934L39.0397 38.7219L36.3576 34.8931L35.0166 35.6294L36.9536 32.9787L37.5497 29.2972L9.53642 52.2699L8.9404 54.3316L10.1325 56.5405V56.9823H0Z" fill="#F8AA16"/>
</svg>
